<svg xmlns="http://www.w3.org/2000/svg" viewBox="0 0 320 520" fill="none">
  <rect x="132" y="36" width="56" height="28" rx="8" fill="#222"/>
  <path d="M118 64h84c8 0 14 6 14 14v28c0 10-6 18-14 22l-8 4v20H126v-20l-8-4c-8-4-14-12-14-22V78c0-8 6-14 14-14Z" fill="#2a2a2a"/>
  <path d="M108 148c0-10 8-18 18-18h68c10 0 18 8 18 18v300c0 22-18 40-40 40h-24c-22 0-40-18-40-40V148Z" fill="#66BB6A"/>
  <path d="M126 168h68v210H126V168Z" fill="white" fill-opacity=".18"/>
  <circle cx="160" cy="250" r="42" fill="white" fill-opacity=".92"/>
  <path d="M149 236l-8 4 14-22 36-12-10 12 12-4-58 60 15-38-9 3 10-15-22 12z" fill="#1a1a1a"/>
  <text x="160" y="340" text-anchor="middle" font-family="Helvetica Neue, Arial, sans-serif" font-size="18" font-weight="700" fill="white" letter-spacing="1">FM</text>
  <text x="160" y="368" text-anchor="middle" font-family="Helvetica Neue, Arial, sans-serif" font-size="11" fill="white" fill-opacity=".85" letter-spacing="3">GATORADE</text>
</svg>