<svg width="432" height="489" viewBox="0 0 432 489" fill="none" xmlns="http://www.w3.org/2000/svg">
<g clip-path="url(#clip0_2228_340)">
<path d="M214.214 232.429L192.107 240.908L228.327 185.79L320.225 155.3L295.564 185.002L326.411 174.221L175.693 329.509L214.214 232.429Z" fill="black"/>
<path d="M299.758 167.185L274.873 197.135L301.823 187.846L192.127 300.909L223.359 222.214L205.582 228.997L231.304 189.875L299.758 167.185Z" fill="#EF3C42"/>
<path d="M283.184 227.488L227.079 285.033H279.242V329.228C267.279 334.292 259.448 336.132 247.022 336.132C226.853 336.132 208.617 329.748 194.376 318.645L160.964 351.968L179.521 304.132C168.312 288.714 160.933 266.845 160.933 244.52C160.933 195.721 194.079 159.809 239.656 159.809C251.005 159.809 261.387 161.428 271.513 165.25L336.155 144.225L313.389 172.744L348.035 160.313L322.671 186.341H353.487V83H304.767V98.266C285.287 90.7845 263.879 87.0734 240.118 87.0734C142.975 87.0734 73 154.747 73 249.582C73 341.657 140.219 405.648 236.896 405.648C282.472 405.648 323.444 393.214 358.892 368.82L358.879 227.488H283.184Z" fill="black"/>
<path d="M199.257 282.957L286.187 193.242L261.753 201.545L286.625 171.539L231.298 189.869L212.525 218.453L227.016 212.987L199.257 282.957Z" fill="#FBB031"/>
</g>
<defs>
<clipPath id="clip0_2228_340">
<rect width="286" height="323" fill="white" transform="translate(73 83)"/>
</clipPath>
</defs>
</svg>
