<svg width="432" height="489" viewBox="0 0 432 489" fill="none" xmlns="http://www.w3.org/2000/svg">
<g clip-path="url(#clip0_2231_341)">
<path d="M213.639 228.542L184.421 239.751L232.292 166.887L353.752 126.58L321.158 165.845L361.928 151.592L162.727 356.88L213.639 228.542Z" fill="black"/>
<path d="M326.701 142.291L293.811 181.884L329.43 169.604L184.448 319.072L225.726 215.038L202.231 224.005L236.227 172.287L326.701 142.291Z" fill="#EF3C42"/>
<path d="M304.796 222.01L230.643 298.084H299.586V356.509C283.774 363.203 273.424 365.636 257.001 365.636C230.344 365.636 206.242 357.196 187.42 342.518L143.26 386.571L167.787 323.332C152.971 302.95 143.219 274.04 143.219 244.526C143.219 180.015 187.028 132.541 247.266 132.541C262.265 132.541 275.987 134.68 289.37 139.733L374.806 111.938L344.717 149.64L390.508 133.206L356.985 167.615H397.714V31H333.321V51.1814C307.575 41.2909 279.281 36.3849 247.876 36.3849C119.484 36.3849 27 125.848 27 251.218C27 372.94 115.841 457.535 243.618 457.535C303.855 457.535 358.006 441.097 404.857 408.849L404.84 222.01H304.796Z" fill="black"/>
<path d="M193.871 295.339L308.765 176.738L276.471 187.714L309.344 148.047L236.219 172.279L211.407 210.066L230.56 202.84L193.871 295.339Z" fill="#FBB031"/>
</g>
<defs>
<clipPath id="clip0_2231_341">
<rect width="378" height="427" fill="white" transform="translate(27 31)"/>
</clipPath>
</defs>
</svg>
