<svg width="958" height="323" viewBox="0 0 958 323" fill="none" xmlns="http://www.w3.org/2000/svg">
<g clip-path="url(#clip0_2236_19)">
<path d="M141.214 149.429L119.107 157.908L155.327 102.79L247.225 72.3004L222.564 102.002L253.411 91.2208L102.693 246.509L141.214 149.429Z" fill="black"/>
<path d="M226.758 84.1853L201.873 114.135L228.823 104.846L119.127 217.909L150.359 139.214L132.582 145.997L158.304 106.875L226.758 84.1853Z" fill="#EF3C42"/>
<path d="M210.184 144.488L154.079 202.033H206.242V246.228C194.279 251.292 186.448 253.132 174.022 253.132C153.853 253.132 135.617 246.748 121.376 235.645L87.9636 268.968L106.521 221.132C95.3116 205.714 87.9331 183.845 87.9331 161.52C87.9331 112.721 121.079 76.8094 166.656 76.8094C178.005 76.8094 188.387 78.4279 198.513 82.2499L263.155 61.2247L240.389 89.7437L275.035 77.3131L249.671 103.341H280.487V0H231.767V15.266C212.287 7.78448 190.879 4.07338 167.118 4.07338C69.9747 4.07338 0 71.7469 0 166.582C0 258.657 67.2187 322.648 163.896 322.648C209.472 322.648 250.444 310.214 285.892 285.82L285.879 144.488H210.184Z" fill="black"/>
<path d="M126.257 199.957L213.187 110.242L188.753 118.545L213.625 88.5389L158.298 106.869L139.525 135.453L154.016 129.987L126.257 199.957Z" fill="#FBB031"/>
</g>
<path d="M530.138 166C501.477 166 481.988 188.776 481.988 215.996C481.988 239.209 497.04 266 530.289 266C558.519 266 578.439 243.934 578.439 215.996C578.439 189.348 560.093 166 530.138 166ZM327.777 168.44V182.475H338.386L316.312 249.525H308V263.568H342.831V249.525H331.794L336.667 233.192H368.479L373.637 249.525H362.75V263.568H399.007V249.525H390.838L364.176 168.44H327.777ZM398.009 168.44V198.808H412.049V182.475H428.529V249.525H416.209V263.568H457.481V249.525H445.153V182.475H461.641V198.808H475.681V168.44H398.009ZM585.039 168.44V182.475H595.783V249.525H585.039V263.568H624.449V249.525H612.414V224.313H626.018C637.632 224.313 642.649 229.903 642.649 240.646V263.568H670.024V249.525H659.272V237.065C659.272 226.176 654.402 218.297 641.793 216.289V215.861C651.68 214.572 661.847 207.262 661.847 193.651C661.847 177.604 649.813 168.44 626.596 168.44H585.039ZM702.7 168.44V182.475H713.309L691.235 249.525H682.923V263.568H717.754V249.525H706.717L711.59 233.192H743.41L748.56 249.525H737.673V263.568H773.93V249.525H765.762L739.1 168.44H702.7ZM786.687 168.44V182.475H797.431V249.525H786.687V263.568H826.953C859.914 263.568 877.829 241.796 877.829 215.861C877.829 188.787 859.917 168.44 826.668 168.44H786.687ZM884.429 168.44V182.475H895.181V249.525H884.429V263.568H957.664V234.198H943.616V249.533H911.804V221.588H940.32V207.552H911.804V182.475H943.616V194.943H957.664V168.44H884.429ZM530.138 181.042C548.487 181.042 560.239 196.514 560.239 215.996C560.239 236.054 547.481 250.958 530.138 250.958C512.8 250.958 500.192 236.054 500.188 215.996C500.188 195.938 513.084 181.042 530.138 181.042ZM352.141 182.475H352.569L364.176 219.149H340.818L352.141 182.475ZM612.406 182.475H626.169C637.061 182.475 643.655 187.209 643.655 195.949C643.655 205.694 637.629 210.277 627.024 210.277H612.406V182.475ZM727.064 182.475H727.492L739.1 219.149H715.742L727.064 182.475ZM814.062 182.475H825.955C849.03 182.475 859.637 196.514 859.637 215.996C859.637 234.335 849.172 249.525 826.098 249.525H814.062V182.475Z" fill="black"/>
<defs>
<clipPath id="clip0_2236_19">
<rect width="286" height="323" fill="white"/>
</clipPath>
</defs>
</svg>
